<?xml version="1.0" encoding="UTF-8"?>
<svg xmlns="http://www.w3.org/2000/svg" xmlns:xlink="http://www.w3.org/1999/xlink" width="84px" height="48px" viewBox="0 0 84 48" version="1.1">
<defs>
<clipPath id="clip1">
  <path d="M 4.429688 16.175781 L 33.28125 16.175781 L 33.28125 30.917969 L 4.429688 30.917969 Z M 4.429688 16.175781 "/>
</clipPath>
</defs>
<g id="surface1">
<rect x="0" y="0" width="84" height="48" style="fill:rgb(100%,100%,100%);fill-opacity:1;stroke:none;"/>
<path style=" stroke:none;fill-rule:nonzero;fill:rgb(9.411765%,46.666667%,94.901961%);fill-opacity:1;" d="M 31.597656 30.0625 C 31.253906 30.0625 30.96875 30.015625 30.738281 29.925781 C 30.511719 29.835938 30.34375 29.738281 30.226562 29.632812 C 30.117188 29.53125 30.0625 29.46875 30.0625 29.445312 L 30.359375 29 C 30.359375 29.007812 30.40625 29.054688 30.507812 29.140625 C 30.613281 29.226562 30.75 29.304688 30.925781 29.378906 C 31.097656 29.453125 31.300781 29.488281 31.53125 29.488281 C 31.773438 29.488281 31.960938 29.425781 32.097656 29.296875 C 32.234375 29.164062 32.300781 28.992188 32.300781 28.78125 C 32.300781 28.644531 32.265625 28.527344 32.191406 28.425781 C 32.117188 28.320312 32.027344 28.238281 31.921875 28.167969 C 31.816406 28.097656 31.667969 28.007812 31.472656 27.898438 C 31.222656 27.769531 31.015625 27.644531 30.859375 27.523438 C 30.699219 27.40625 30.5625 27.246094 30.445312 27.054688 C 30.332031 26.867188 30.273438 26.628906 30.273438 26.347656 C 30.273438 26.042969 30.34375 25.777344 30.484375 25.546875 C 30.625 25.316406 30.820312 25.144531 31.066406 25.019531 C 31.316406 24.898438 31.597656 24.839844 31.914062 24.839844 C 32.125 24.839844 32.320312 24.863281 32.503906 24.917969 C 32.6875 24.96875 32.84375 25.027344 32.972656 25.09375 C 33.097656 25.15625 33.164062 25.191406 33.164062 25.191406 L 33.039062 25.722656 C 33.011719 25.710938 32.949219 25.675781 32.847656 25.621094 C 32.746094 25.566406 32.617188 25.507812 32.460938 25.457031 C 32.304688 25.40625 32.148438 25.378906 31.988281 25.378906 C 31.789062 25.378906 31.628906 25.4375 31.507812 25.550781 C 31.390625 25.664062 31.332031 25.816406 31.332031 26.015625 C 31.332031 26.230469 31.402344 26.402344 31.539062 26.535156 C 31.683594 26.664062 31.898438 26.808594 32.191406 26.960938 C 32.453125 27.101562 32.65625 27.230469 32.8125 27.34375 C 32.96875 27.457031 33.097656 27.613281 33.210938 27.804688 C 33.328125 28.003906 33.382812 28.246094 33.382812 28.535156 C 33.382812 28.851562 33.304688 29.125 33.144531 29.351562 C 32.984375 29.582031 32.769531 29.757812 32.5 29.878906 C 32.230469 30 31.929688 30.0625 31.597656 30.0625 Z M 31.597656 30.0625 "/>
<path style=" stroke:none;fill-rule:nonzero;fill:rgb(9.411765%,46.666667%,94.901961%);fill-opacity:1;" d="M 35.347656 30.0625 C 34.976562 30.0625 34.703125 29.972656 34.523438 29.792969 C 34.351562 29.613281 34.265625 29.304688 34.265625 28.875 L 34.265625 26.679688 L 33.890625 26.679688 L 33.890625 26.210938 L 34.269531 26.105469 L 34.769531 24.792969 L 35.300781 24.792969 L 35.300781 26.082031 L 36.15625 26.082031 L 36.15625 26.679688 L 35.300781 26.679688 L 35.300781 28.609375 C 35.300781 28.851562 35.3125 29.039062 35.332031 29.164062 C 35.355469 29.292969 35.394531 29.378906 35.445312 29.433594 C 35.5 29.480469 35.574219 29.503906 35.667969 29.503906 C 35.769531 29.503906 35.863281 29.492188 35.949219 29.472656 C 36.03125 29.453125 36.070312 29.4375 36.070312 29.433594 L 36.136719 29.878906 C 36.136719 29.882812 36.105469 29.902344 36.046875 29.933594 C 35.992188 29.960938 35.902344 29.992188 35.785156 30.019531 C 35.667969 30.046875 35.523438 30.0625 35.347656 30.0625 Z M 35.347656 30.0625 "/>
<path style=" stroke:none;fill-rule:nonzero;fill:rgb(9.411765%,46.666667%,94.901961%);fill-opacity:1;" d="M 38.042969 30.0625 C 37.640625 30.0625 37.339844 29.953125 37.140625 29.738281 C 36.941406 29.523438 36.84375 29.191406 36.84375 28.734375 L 36.84375 26.082031 L 37.878906 26.082031 L 37.878906 28.515625 C 37.878906 28.855469 37.921875 29.09375 38.003906 29.222656 C 38.089844 29.351562 38.21875 29.417969 38.40625 29.417969 C 38.53125 29.417969 38.640625 29.394531 38.738281 29.351562 C 38.839844 29.308594 38.917969 29.261719 38.972656 29.21875 C 39.03125 29.167969 39.070312 29.136719 39.089844 29.117188 L 39.089844 26.082031 L 40.125 26.082031 L 40.125 29.980469 L 39.289062 29.980469 L 39.140625 29.632812 L 39.125 29.632812 C 39.125 29.644531 39.082031 29.691406 39 29.765625 C 38.914062 29.84375 38.792969 29.910156 38.628906 29.972656 C 38.46875 30.03125 38.273438 30.0625 38.042969 30.0625 Z M 38.042969 30.0625 "/>
<path style=" stroke:none;fill-rule:nonzero;fill:rgb(9.411765%,46.666667%,94.901961%);fill-opacity:1;" d="M 42.453125 30.0625 C 42.128906 30.0625 41.84375 29.980469 41.597656 29.820312 C 41.347656 29.664062 41.160156 29.4375 41.023438 29.144531 C 40.890625 28.851562 40.824219 28.507812 40.824219 28.113281 C 40.824219 27.695312 40.886719 27.324219 41.015625 27.003906 C 41.144531 26.683594 41.332031 26.4375 41.574219 26.265625 C 41.8125 26.09375 42.089844 26.003906 42.40625 26.003906 C 42.605469 26.003906 42.773438 26.027344 42.910156 26.070312 C 43.046875 26.113281 43.144531 26.160156 43.214844 26.210938 C 43.28125 26.261719 43.316406 26.292969 43.316406 26.300781 L 43.34375 26.300781 L 43.34375 24.167969 L 44.378906 24.101562 L 44.378906 29.980469 L 43.515625 29.980469 L 43.394531 29.628906 L 43.390625 29.628906 C 43.390625 29.644531 43.359375 29.6875 43.296875 29.761719 C 43.234375 29.832031 43.128906 29.902344 42.992188 29.96875 C 42.855469 30.03125 42.671875 30.0625 42.453125 30.0625 Z M 42.6875 29.457031 C 42.8125 29.457031 42.925781 29.433594 43.027344 29.378906 C 43.121094 29.328125 43.199219 29.269531 43.253906 29.207031 C 43.3125 29.144531 43.34375 29.109375 43.34375 29.097656 L 43.34375 26.855469 C 43.332031 26.839844 43.300781 26.8125 43.25 26.773438 C 43.199219 26.734375 43.128906 26.695312 43.039062 26.65625 C 42.949219 26.617188 42.84375 26.597656 42.722656 26.597656 C 42.445312 26.597656 42.242188 26.710938 42.117188 26.933594 C 41.996094 27.152344 41.9375 27.539062 41.9375 28.082031 C 41.9375 28.449219 41.964844 28.730469 42.019531 28.925781 C 42.074219 29.125 42.15625 29.261719 42.257812 29.34375 C 42.367188 29.421875 42.511719 29.457031 42.6875 29.457031 Z M 42.6875 29.457031 "/>
<path style=" stroke:none;fill-rule:nonzero;fill:rgb(9.411765%,46.666667%,94.901961%);fill-opacity:1;" d="M 45.625 32.011719 C 45.503906 32.011719 45.398438 32 45.308594 31.984375 C 45.21875 31.964844 45.148438 31.949219 45.097656 31.929688 C 45.054688 31.914062 45.027344 31.902344 45.015625 31.894531 L 45.097656 31.285156 C 45.121094 31.296875 45.171875 31.3125 45.253906 31.339844 C 45.339844 31.359375 45.421875 31.375 45.507812 31.375 C 45.738281 31.375 45.929688 31.28125 46.074219 31.097656 C 46.21875 30.914062 46.378906 30.59375 46.558594 30.136719 L 44.898438 26.082031 L 46.152344 26.082031 L 47.105469 28.859375 L 47.90625 26.082031 L 48.554688 26.082031 L 47.203125 30.0625 C 47.042969 30.507812 46.890625 30.867188 46.75 31.140625 C 46.605469 31.414062 46.445312 31.628906 46.261719 31.78125 C 46.078125 31.933594 45.867188 32.011719 45.625 32.011719 Z M 45.625 32.011719 "/>
<path style=" stroke:none;fill-rule:nonzero;fill:rgb(9.411765%,46.666667%,94.901961%);fill-opacity:1;" d="M 48.738281 29.980469 L 50.425781 24.917969 L 51.613281 24.917969 L 53.191406 29.980469 L 52.050781 29.980469 L 51.613281 28.5625 L 49.851562 28.5625 L 49.394531 29.980469 Z M 50.007812 28.066406 L 51.46875 28.066406 L 50.773438 25.6875 L 50.757812 25.6875 Z M 50.007812 28.066406 "/>
<path style=" stroke:none;fill-rule:nonzero;fill:rgb(9.411765%,46.666667%,94.901961%);fill-opacity:1;" d="M 55.71875 30.09375 C 55.511719 30.09375 55.332031 30.066406 55.179688 30.007812 C 55.027344 29.953125 54.90625 29.894531 54.820312 29.828125 C 54.734375 29.761719 54.695312 29.722656 54.695312 29.714844 L 54.679688 29.714844 L 54.507812 29.980469 L 53.796875 29.980469 L 53.796875 24.167969 L 54.835938 24.101562 L 54.835938 26.339844 L 54.867188 26.339844 C 54.867188 26.328125 54.898438 26.292969 54.964844 26.230469 C 55.03125 26.164062 55.136719 26.105469 55.277344 26.050781 C 55.414062 25.996094 55.589844 25.96875 55.796875 25.96875 C 56.105469 25.96875 56.371094 26.050781 56.605469 26.21875 C 56.839844 26.382812 57.023438 26.613281 57.152344 26.914062 C 57.28125 27.21875 57.351562 27.5625 57.351562 27.953125 C 57.351562 28.597656 57.207031 29.117188 56.917969 29.511719 C 56.628906 29.898438 56.230469 30.09375 55.71875 30.09375 Z M 55.449219 29.503906 C 55.734375 29.503906 55.933594 29.390625 56.054688 29.160156 C 56.175781 28.929688 56.234375 28.535156 56.234375 27.980469 C 56.234375 27.617188 56.210938 27.335938 56.164062 27.136719 C 56.113281 26.933594 56.035156 26.789062 55.921875 26.703125 C 55.816406 26.617188 55.667969 26.574219 55.484375 26.574219 C 55.351562 26.574219 55.234375 26.605469 55.136719 26.667969 C 55.039062 26.726562 54.964844 26.789062 54.914062 26.859375 C 54.859375 26.929688 54.835938 26.96875 54.835938 26.980469 L 54.835938 29.210938 C 54.835938 29.222656 54.855469 29.253906 54.902344 29.304688 C 54.949219 29.355469 55.019531 29.398438 55.109375 29.441406 C 55.199219 29.484375 55.3125 29.503906 55.449219 29.503906 Z M 55.449219 29.503906 "/>
<path style=" stroke:none;fill-rule:nonzero;fill:rgb(9.411765%,46.666667%,94.901961%);fill-opacity:1;" d="M 58.042969 26.082031 L 58.773438 26.082031 L 58.945312 26.738281 L 58.976562 26.738281 C 58.976562 26.707031 59 26.632812 59.039062 26.511719 C 59.082031 26.386719 59.15625 26.269531 59.269531 26.160156 C 59.382812 26.054688 59.53125 26 59.71875 26 C 59.820312 26 59.9375 26.015625 60.070312 26.046875 C 60.207031 26.074219 60.292969 26.09375 60.335938 26.105469 L 60.242188 26.832031 C 60.199219 26.820312 60.105469 26.800781 59.960938 26.769531 C 59.816406 26.738281 59.695312 26.722656 59.589844 26.722656 C 59.472656 26.722656 59.375 26.757812 59.300781 26.828125 C 59.226562 26.898438 59.171875 26.972656 59.132812 27.050781 C 59.097656 27.128906 59.082031 27.175781 59.082031 27.1875 L 59.082031 29.980469 L 58.042969 29.980469 Z M 58.042969 26.082031 "/>
<path style=" stroke:none;fill-rule:nonzero;fill:rgb(9.411765%,46.666667%,94.901961%);fill-opacity:1;" d="M 62.382812 30.0625 C 61.800781 30.0625 61.351562 29.886719 61.035156 29.535156 C 60.722656 29.183594 60.566406 28.679688 60.566406 28.03125 C 60.566406 27.382812 60.722656 26.882812 61.035156 26.53125 C 61.351562 26.175781 61.800781 26 62.382812 26 C 62.96875 26 63.421875 26.175781 63.734375 26.53125 C 64.046875 26.882812 64.207031 27.382812 64.207031 28.03125 C 64.207031 28.675781 64.042969 29.175781 63.71875 29.53125 C 63.394531 29.886719 62.949219 30.0625 62.382812 30.0625 Z M 62.382812 29.550781 C 62.554688 29.550781 62.6875 29.503906 62.789062 29.40625 C 62.894531 29.304688 62.96875 29.144531 63.015625 28.925781 C 63.0625 28.707031 63.085938 28.410156 63.085938 28.03125 C 63.085938 27.652344 63.0625 27.355469 63.015625 27.136719 C 62.96875 26.914062 62.894531 26.761719 62.796875 26.667969 C 62.699219 26.570312 62.5625 26.519531 62.382812 26.519531 C 62.207031 26.519531 62.066406 26.570312 61.96875 26.667969 C 61.871094 26.761719 61.796875 26.914062 61.75 27.136719 C 61.703125 27.355469 61.679688 27.652344 61.679688 28.027344 C 61.679688 28.40625 61.703125 28.707031 61.75 28.925781 C 61.796875 29.144531 61.871094 29.304688 61.972656 29.40625 C 62.078125 29.503906 62.210938 29.550781 62.382812 29.550781 Z M 62.382812 29.550781 "/>
<path style=" stroke:none;fill-rule:nonzero;fill:rgb(9.411765%,46.666667%,94.901961%);fill-opacity:1;" d="M 65.84375 30.0625 C 65.480469 30.0625 65.1875 29.972656 64.96875 29.792969 C 64.75 29.613281 64.640625 29.363281 64.640625 29.042969 C 64.640625 28.585938 64.855469 28.257812 65.28125 28.050781 C 65.710938 27.847656 66.214844 27.722656 66.789062 27.671875 L 66.789062 27.449219 C 66.789062 27.09375 66.738281 26.851562 66.636719 26.71875 C 66.539062 26.585938 66.375 26.519531 66.140625 26.519531 C 66.03125 26.519531 65.90625 26.539062 65.765625 26.582031 C 65.628906 26.625 65.511719 26.671875 65.414062 26.71875 C 65.308594 26.765625 65.246094 26.792969 65.214844 26.808594 L 65.109375 26.304688 C 65.140625 26.292969 65.214844 26.261719 65.328125 26.210938 C 65.445312 26.160156 65.59375 26.113281 65.777344 26.066406 C 65.957031 26.023438 66.136719 26 66.320312 26 C 66.808594 26 67.179688 26.101562 67.4375 26.304688 C 67.695312 26.511719 67.824219 26.863281 67.824219 27.359375 L 67.824219 29.128906 C 67.824219 29.402344 67.875 29.539062 67.984375 29.539062 C 68.027344 29.539062 68.074219 29.535156 68.132812 29.519531 C 68.191406 29.503906 68.230469 29.492188 68.25 29.488281 L 68.28125 29.894531 C 68.257812 29.90625 68.195312 29.925781 68.09375 29.949219 C 67.996094 29.972656 67.882812 29.996094 67.757812 30.019531 C 67.628906 30.046875 67.511719 30.0625 67.417969 30.0625 C 67.265625 30.0625 67.152344 30.027344 67.070312 29.953125 C 66.984375 29.878906 66.929688 29.753906 66.902344 29.582031 L 66.867188 29.582031 C 66.867188 29.597656 66.828125 29.644531 66.753906 29.726562 C 66.6875 29.808594 66.574219 29.886719 66.425781 29.957031 C 66.277344 30.027344 66.085938 30.0625 65.84375 30.0625 Z M 66.1875 29.539062 C 66.3125 29.539062 66.421875 29.511719 66.511719 29.445312 C 66.601562 29.386719 66.667969 29.316406 66.714844 29.246094 C 66.761719 29.167969 66.789062 29.125 66.789062 29.113281 L 66.789062 28.082031 C 66.4375 28.121094 66.175781 28.207031 65.996094 28.332031 C 65.8125 28.457031 65.722656 28.648438 65.722656 28.910156 C 65.722656 29.117188 65.765625 29.277344 65.851562 29.386719 C 65.933594 29.488281 66.046875 29.539062 66.1875 29.539062 Z M 66.1875 29.539062 "/>
<path style=" stroke:none;fill-rule:nonzero;fill:rgb(9.411765%,46.666667%,94.901961%);fill-opacity:1;" d="M 70.285156 30.0625 C 69.960938 30.0625 69.675781 29.980469 69.429688 29.820312 C 69.183594 29.664062 68.992188 29.4375 68.859375 29.144531 C 68.722656 28.851562 68.65625 28.507812 68.65625 28.113281 C 68.65625 27.695312 68.71875 27.324219 68.847656 27.003906 C 68.980469 26.683594 69.164062 26.4375 69.40625 26.265625 C 69.644531 26.09375 69.921875 26.003906 70.238281 26.003906 C 70.4375 26.003906 70.605469 26.027344 70.742188 26.070312 C 70.878906 26.113281 70.976562 26.160156 71.046875 26.210938 C 71.113281 26.261719 71.148438 26.292969 71.148438 26.300781 L 71.175781 26.300781 L 71.175781 24.167969 L 72.210938 24.101562 L 72.210938 29.980469 L 71.347656 29.980469 L 71.226562 29.628906 L 71.222656 29.628906 C 71.222656 29.644531 71.191406 29.6875 71.128906 29.761719 C 71.066406 29.832031 70.964844 29.902344 70.828125 29.96875 C 70.6875 30.03125 70.503906 30.0625 70.285156 30.0625 Z M 70.519531 29.457031 C 70.644531 29.457031 70.761719 29.433594 70.859375 29.378906 C 70.953125 29.328125 71.03125 29.269531 71.085938 29.207031 C 71.144531 29.144531 71.175781 29.109375 71.175781 29.097656 L 71.175781 26.855469 C 71.164062 26.839844 71.132812 26.8125 71.082031 26.773438 C 71.03125 26.734375 70.964844 26.695312 70.875 26.65625 C 70.78125 26.617188 70.675781 26.597656 70.554688 26.597656 C 70.277344 26.597656 70.078125 26.710938 69.949219 26.933594 C 69.828125 27.152344 69.769531 27.539062 69.769531 28.082031 C 69.769531 28.449219 69.796875 28.730469 69.851562 28.925781 C 69.90625 29.125 69.988281 29.261719 70.089844 29.34375 C 70.199219 29.421875 70.34375 29.457031 70.519531 29.457031 Z M 70.519531 29.457031 "/>
<g clip-path="url(#clip1)" clip-rule="nonzero">
<path style=" stroke:none;fill-rule:nonzero;fill:rgb(9.411765%,46.666667%,94.901961%);fill-opacity:1;" d="M 32.757812 20.453125 L 20.324219 16.511719 C 19.371094 16.207031 18.359375 16.207031 17.40625 16.511719 L 4.960938 20.457031 C 4.640625 20.570312 4.429688 20.863281 4.429688 21.203125 C 4.429688 21.542969 4.640625 21.835938 4.972656 21.953125 L 11.886719 24.144531 L 11.886719 29.285156 C 11.886719 29.5 12.019531 29.691406 12.222656 29.765625 C 14.34375 30.554688 16.578125 30.953125 18.867188 30.953125 C 21.152344 30.953125 23.390625 30.554688 25.507812 29.765625 C 25.710938 29.691406 25.84375 29.5 25.84375 29.285156 L 25.84375 26.03125 C 25.84375 25.746094 25.613281 25.515625 25.328125 25.515625 C 25.042969 25.515625 24.8125 25.746094 24.8125 26.03125 L 24.8125 28.921875 C 21.003906 30.25 16.726562 30.25 12.917969 28.921875 L 12.917969 24.472656 L 17.40625 25.898438 C 17.882812 26.046875 18.375 26.125 18.867188 26.125 C 19.359375 26.125 19.847656 26.050781 20.324219 25.898438 L 26.949219 23.792969 L 26.949219 30.4375 C 26.949219 30.722656 27.175781 30.953125 27.464844 30.953125 C 27.75 30.953125 27.980469 30.722656 27.980469 30.4375 L 27.980469 23.089844 C 27.980469 23.078125 27.96875 23.070312 27.96875 23.058594 C 27.964844 23.015625 27.96875 22.976562 27.953125 22.933594 C 27.9375 22.890625 27.914062 22.851562 27.890625 22.816406 C 27.878906 22.804688 27.875 22.789062 27.867188 22.777344 C 27.808594 22.703125 27.730469 22.648438 27.644531 22.617188 C 27.632812 22.613281 27.628906 22.601562 27.617188 22.597656 L 19.019531 19.875 C 18.75 19.789062 18.460938 19.9375 18.375 20.207031 C 18.289062 20.480469 18.4375 20.769531 18.710938 20.855469 L 25.757812 23.089844 L 20.015625 24.914062 C 19.265625 25.152344 18.46875 25.152344 17.71875 24.914062 L 6.019531 21.203125 L 17.71875 17.492188 C 18.46875 17.253906 19.265625 17.253906 20.015625 17.492188 L 31.710938 21.203125 L 29.460938 21.917969 C 29.1875 22.003906 29.039062 22.292969 29.125 22.566406 C 29.207031 22.835938 29.5 22.988281 29.769531 22.902344 L 32.769531 21.949219 C 33.09375 21.835938 33.300781 21.542969 33.300781 21.203125 C 33.300781 20.859375 33.09375 20.570312 32.757812 20.453125 Z M 32.757812 20.453125 "/>
</g>
</g>
</svg>
